<?xml version="1.0" encoding="UTF-8"?>
<!DOCTYPE svg PUBLIC "-//W3C//DTD SVG 1.1//EN" "http://www.w3.org/Graphics/SVG/1.1/DTD/svg11.dtd">
<svg xmlns="http://www.w3.org/2000/svg" version="1.1" width="500px" height="500px"
  style="shape-rendering:geometricPrecision; text-rendering:geometricPrecision; image-rendering:optimizeQuality; fill-rule:evenodd; clip-rule:evenodd"
  xmlns:xlink="http://www.w3.org/1999/xlink">
  <g>
    <path style="opacity:1" fill="#fefefe"
      d="M -0.5,-0.5 C 166.167,-0.5 332.833,-0.5 499.5,-0.5C 499.5,166.167 499.5,332.833 499.5,499.5C 332.833,499.5 166.167,499.5 -0.5,499.5C -0.5,332.833 -0.5,166.167 -0.5,-0.5 Z" />
  </g>
  <g>
    <path style="opacity:1" fill="#898989"
      d="M 328.5,129.5 C 342.323,128.504 356.323,128.171 370.5,128.5C 370.5,129.5 370.5,130.5 370.5,131.5C 369.167,131.5 367.833,131.5 366.5,131.5C 367.263,130.732 368.263,130.232 369.5,130C 355.837,129.5 342.171,129.333 328.5,129.5 Z" />
  </g>
  <g>
    <path style="opacity:1" fill="#555555"
      d="M 328.5,129.5 C 342.171,129.333 355.837,129.5 369.5,130C 368.263,130.232 367.263,130.732 366.5,131.5C 357.553,132.991 352.386,138.324 351,147.5C 350.088,151.795 349.421,156.128 349,160.5C 348.333,214.167 348.333,267.833 349,321.5C 348.42,332.689 350.42,343.355 355,353.5C 359.018,357.593 363.851,360.26 369.5,361.5C 348.833,362.833 328.167,362.833 307.5,361.5C 319.898,358.929 326.398,351.263 327,338.5C 327.333,335.167 327.667,331.833 328,328.5C 328.667,264.833 328.667,201.167 328,137.5C 301.998,206.677 276.498,276.01 251.5,345.5C 250.325,345.719 249.325,345.386 248.5,344.5C 217.763,278.457 186.93,212.457 156,146.5C 155.5,154.159 155.334,161.826 155.5,169.5C 154.5,169.5 153.5,169.5 152.5,169.5C 153.036,158.716 151.203,148.383 147,138.5C 143.111,133.305 137.944,130.971 131.5,131.5C 131.5,130.5 131.5,129.5 131.5,128.5C 144.184,128.168 156.851,128.501 169.5,129.5C 199.244,191.911 229.077,254.245 259,316.5C 282.272,254.182 305.439,191.848 328.5,129.5 Z" />
  </g>
  <g>
    <path style="opacity:1" fill="#8b8c8c"
      d="M 147.5,206.5 C 142.33,203.496 138.33,199.329 135.5,194C 137.804,194.573 139.971,195.74 142,197.5C 144.358,200.222 146.191,203.222 147.5,206.5 Z" />
  </g>
  <g>
    <path style="opacity:1" fill="#727474"
      d="M 147.5,206.5 C 151.665,210.497 155.998,214.33 160.5,218C 158.953,218.333 157.62,217.833 156.5,216.5C 156.167,216.833 155.833,217.167 155.5,217.5C 157.567,220.006 157.901,222.673 156.5,225.5C 155.083,223.115 153.75,220.615 152.5,218C 152.645,217.228 152.978,216.561 153.5,216C 151.645,212.665 149.645,209.498 147.5,206.5 Z" />
  </g>
  <g>
    <path style="opacity:1" fill="#7d7e7e"
      d="M 156.5,225.5 C 157.391,226.261 158.058,227.261 158.5,228.5C 157.863,231.107 156.696,233.44 155,235.5C 154.727,233.671 153.893,232.171 152.5,231C 153.996,230.493 155.163,230.993 156,232.5C 156.167,232.167 156.333,231.833 156.5,231.5C 155.167,230.167 153.833,228.833 152.5,227.5C 153.587,226.895 154.754,227.228 156,228.5C 156.483,227.552 156.649,226.552 156.5,225.5 Z" />
  </g>
  <g>
    <path style="opacity:1" fill="#727374"
      d="M 156.5,245.5 C 155.275,244.063 154.275,242.396 153.5,240.5C 154.727,239.41 155.56,238.076 156,236.5C 158.067,239.109 160.234,241.609 162.5,244C 161.725,245.23 160.725,245.563 159.5,245C 158.213,243.59 157.046,242.09 156,240.5C 156.019,242.107 156.185,243.774 156.5,245.5 Z" />
  </g>
  <g>
    <path style="opacity:1" fill="#575859"
      d="M 137.5,244.5 C 135.704,243.207 134.037,241.707 132.5,240C 135.186,240.177 136.852,241.677 137.5,244.5 Z" />
  </g>
  <g>
    <path style="opacity:1" fill="#666868"
      d="M 156.5,245.5 C 157.965,247.546 157.632,249.38 155.5,251C 157.211,252.133 157.711,253.633 157,255.5C 154.762,253.691 153.595,251.358 153.5,248.5C 154.5,248.5 155.5,248.5 156.5,248.5C 156.5,247.5 156.5,246.5 156.5,245.5 Z" />
  </g>
  <g>
    <path style="opacity:1" fill="#9a9b9b"
      d="M 141.5,251.5 C 143.404,251.738 144.738,252.738 145.5,254.5C 145.058,255.231 144.891,256.231 145,257.5C 143.569,255.636 142.403,253.636 141.5,251.5 Z" />
  </g>
  <g>
    <path style="opacity:1" fill="#4b4d4e"
      d="M 137.5,244.5 C 145.526,252.194 153.526,259.861 161.5,267.5C 155.606,263.948 150.273,259.614 145.5,254.5C 144.738,252.738 143.404,251.738 141.5,251.5C 140.139,249.15 138.806,246.816 137.5,244.5 Z" />
  </g>
  <g>
    <path style="opacity:1" fill="#898a8a"
      d="M 149.5,263.5 C 147.915,262.998 147.415,261.998 148,260.5C 149.039,261.244 149.539,262.244 149.5,263.5 Z" />
  </g>
  <g>
    <path style="opacity:1" fill="#8a8b8c"
      d="M 149.5,263.5 C 151.25,264.659 152.25,266.326 152.5,268.5C 150.75,267.341 149.75,265.674 149.5,263.5 Z" />
  </g>
  <g>
    <path style="opacity:1" fill="#515354"
      d="M 152.5,268.5 C 155.321,270.962 156.321,273.962 155.5,277.5C 152.5,275.667 149.5,273.833 146.5,272C 137.346,262.68 128.013,253.513 118.5,244.5C 119.002,243.479 119.668,243.312 120.5,244C 130.749,255.086 141.749,265.253 153.5,274.5C 153.833,274.167 154.167,273.833 154.5,273.5C 153.544,271.925 152.877,270.258 152.5,268.5 Z" />
  </g>
  <g>
    <path style="opacity:1" fill="#646566"
      d="M 161.5,267.5 C 164.792,269.458 167.792,271.791 170.5,274.5C 166.637,273.306 163.637,270.973 161.5,267.5 Z" />
  </g>
  <g>
    <path style="opacity:1" fill="#a1a2a2"
      d="M 132.5,261.5 C 138.023,265.842 142.523,270.842 146,276.5C 140.9,271.908 136.4,266.908 132.5,261.5 Z" />
  </g>
  <g>
    <path style="opacity:1" fill="#727373"
      d="M 170.5,274.5 C 172.027,274.427 173.027,275.094 173.5,276.5C 171.973,276.573 170.973,275.906 170.5,274.5 Z" />
  </g>
  <g>
    <path style="opacity:1" fill="#7c7e7e"
      d="M 173.5,276.5 C 175.027,276.427 176.027,277.094 176.5,278.5C 174.973,278.573 173.973,277.906 173.5,276.5 Z" />
  </g>
  <g>
    <path style="opacity:1" fill="#868787"
      d="M 176.5,278.5 C 177.756,278.461 178.756,278.961 179.5,280C 178.002,280.585 177.002,280.085 176.5,278.5 Z" />
  </g>
  <g>
    <path style="opacity:1" fill="#8e8f8f"
      d="M 153.5,284.5 C 150.927,283.121 149.427,281.121 149,278.5C 151.127,280.114 152.627,282.114 153.5,284.5 Z" />
  </g>
  <g>
    <path style="opacity:1" fill="#838485"
      d="M 153.5,284.5 C 155.587,285.585 156.92,287.251 157.5,289.5C 155.413,288.415 154.08,286.749 153.5,284.5 Z" />
  </g>
  <g>
    <path style="opacity:1" fill="#78797a"
      d="M 157.5,289.5 C 160.243,291.239 162.243,293.573 163.5,296.5C 160.757,294.761 158.757,292.427 157.5,289.5 Z" />
  </g>
  <g>
    <path style="opacity:1" fill="#717273"
      d="M 163.5,296.5 C 165.914,297.911 167.581,299.911 168.5,302.5C 166.086,301.089 164.419,299.089 163.5,296.5 Z" />
  </g>
  <g>
    <path style="opacity:1" fill="#717373"
      d="M 168.5,302.5 C 170.914,303.911 172.581,305.911 173.5,308.5C 171.086,307.089 169.419,305.089 168.5,302.5 Z" />
  </g>
  <g>
    <path style="opacity:1" fill="#6e6f6f"
      d="M 173.5,308.5 C 174.906,308.973 175.573,309.973 175.5,311.5C 174.094,311.027 173.427,310.027 173.5,308.5 Z" />
  </g>
  <g>
    <path style="opacity:1" fill="#626364"
      d="M 175.5,311.5 C 177.588,313.336 178.921,315.669 179.5,318.5C 177.412,316.664 176.079,314.331 175.5,311.5 Z" />
  </g>
  <g>
    <path style="opacity:1" fill="#47494a"
      d="M 179.5,318.5 C 182.208,321.956 183.541,325.956 183.5,330.5C 182.325,330.719 181.325,330.386 180.5,329.5C 181.022,328.393 181.355,327.226 181.5,326C 180.678,323.528 180.011,321.028 179.5,318.5 Z" />
  </g>
  <g>
    <path style="opacity:1" fill="#565656"
      d="M 160.5,326.5 C 163.262,339.18 169.928,349.347 180.5,357C 185.067,358.808 189.733,360.308 194.5,361.5C 173.511,362.5 152.511,362.833 131.5,362.5C 131.5,361.5 131.5,360.5 131.5,359.5C 140.329,360.506 146.162,356.84 149,348.5C 150.82,341.941 151.986,335.274 152.5,328.5C 155.698,329.036 158.365,328.369 160.5,326.5 Z" />
  </g>
</svg>